<svg id="visual" viewBox="0 0 1920 1080" width="1920" height="1080" xmlns="http://www.w3.org/2000/svg" xmlns:xlink="http://www.w3.org/1999/xlink" version="1.1"><path d="M0 228L40 233.3C80 238.7 160 249.3 240 252.8C320 256.3 400 252.7 480 243.7C560 234.7 640 220.3 720 238.3C800 256.3 880 306.7 960 317.5C1040 328.3 1120 299.7 1200 272.7C1280 245.7 1360 220.3 1440 202.3C1520 184.3 1600 173.7 1680 168.3C1760 163 1840 163 1880 163L1920 163L1920 0L1880 0C1840 0 1760 0 1680 0C1600 0 1520 0 1440 0C1360 0 1280 0 1200 0C1120 0 1040 0 960 0C880 0 800 0 720 0C640 0 560 0 480 0C400 0 320 0 240 0C160 0 80 0 40 0L0 0Z" fill="#6200ea"></path><path d="M0 325L40 330.3C80 335.7 160 346.3 240 344.5C320 342.7 400 328.3 480 314C560 299.7 640 285.3 720 303.3C800 321.3 880 371.7 960 386C1040 400.3 1120 378.7 1200 355.3C1280 332 1360 307 1440 285.5C1520 264 1600 246 1680 240.5C1760 235 1840 242 1880 245.5L1920 249L1920 161L1880 161C1840 161 1760 161 1680 166.3C1600 171.7 1520 182.3 1440 200.3C1360 218.3 1280 243.7 1200 270.7C1120 297.7 1040 326.3 960 315.5C880 304.7 800 254.3 720 236.3C640 218.3 560 232.7 480 241.7C400 250.7 320 254.3 240 250.8C160 247.3 80 236.7 40 231.3L0 226Z" fill="#26c6da"></path><path d="M0 411L40 420C80 429 160 447 240 447C320 447 400 429 480 407.5C560 386 640 361 720 375.5C800 390 880 444 960 471C1040 498 1120 498 1200 472.8C1280 447.7 1360 397.3 1440 373.8C1520 350.3 1600 353.7 1680 353.7C1760 353.7 1840 350.3 1880 348.7L1920 347L1920 247L1880 243.5C1840 240 1760 233 1680 238.5C1600 244 1520 262 1440 283.5C1360 305 1280 330 1200 353.3C1120 376.7 1040 398.3 960 384C880 369.7 800 319.3 720 301.3C640 283.3 560 297.7 480 312C400 326.3 320 340.7 240 342.5C160 344.3 80 333.7 40 328.3L0 323Z" fill="#2147ce"></path><path d="M0 649L40 659.8C80 670.7 160 692.3 240 696C320 699.7 400 685.3 480 667.3C560 649.3 640 627.7 720 633C800 638.3 880 670.7 960 688.7C1040 706.7 1120 710.3 1200 706.7C1280 703 1360 692 1440 695.5C1520 699 1600 717 1680 715.3C1760 713.7 1840 692.3 1880 681.7L1920 671L1920 345L1880 346.7C1840 348.3 1760 351.7 1680 351.7C1600 351.7 1520 348.3 1440 371.8C1360 395.3 1280 445.7 1200 470.8C1120 496 1040 496 960 469C880 442 800 388 720 373.5C640 359 560 384 480 405.5C400 427 320 445 240 445C160 445 80 427 40 418L0 409Z" fill="#2338b6"></path><path d="M0 735L40 742.3C80 749.7 160 764.3 240 766.2C320 768 400 757 480 739C560 721 640 696 720 701.5C800 707 880 743 960 762.7C1040 782.3 1120 785.7 1200 783.8C1280 782 1360 775 1440 776.8C1520 778.7 1600 789.3 1680 789.3C1760 789.3 1840 778.7 1880 773.3L1920 768L1920 669L1880 679.7C1840 690.3 1760 711.7 1680 713.3C1600 715 1520 697 1440 693.5C1360 690 1280 701 1200 704.7C1120 708.3 1040 704.7 960 686.7C880 668.7 800 636.3 720 631C640 625.7 560 647.3 480 665.3C400 683.3 320 697.7 240 694C160 690.3 80 668.7 40 657.8L0 647Z" fill="#22299f"></path><path d="M0 951L40 951C80 951 160 951 240 949.3C320 947.7 400 944.3 480 937.2C560 930 640 919 720 911.7C800 904.3 880 900.7 960 909.7C1040 918.7 1120 940.3 1200 942.2C1280 944 1360 926 1440 924.2C1520 922.3 1600 936.7 1680 942.2C1760 947.7 1840 944.3 1880 942.7L1920 941L1920 766L1880 771.3C1840 776.7 1760 787.3 1680 787.3C1600 787.3 1520 776.7 1440 774.8C1360 773 1280 780 1200 781.8C1120 783.7 1040 780.3 960 760.7C880 741 800 705 720 699.5C640 694 560 719 480 737C400 755 320 766 240 764.2C160 762.3 80 747.7 40 740.3L0 733Z" fill="#1e1a89"></path><path d="M0 1081L40 1081C80 1081 160 1081 240 1081C320 1081 400 1081 480 1081C560 1081 640 1081 720 1081C800 1081 880 1081 960 1081C1040 1081 1120 1081 1200 1081C1280 1081 1360 1081 1440 1081C1520 1081 1600 1081 1680 1081C1760 1081 1840 1081 1880 1081L1920 1081L1920 939L1880 940.7C1840 942.3 1760 945.7 1680 940.2C1600 934.7 1520 920.3 1440 922.2C1360 924 1280 942 1200 940.2C1120 938.3 1040 916.7 960 907.7C880 898.7 800 902.3 720 909.7C640 917 560 928 480 935.2C400 942.3 320 945.7 240 947.3C160 949 80 949 40 949L0 949Z" fill="#180a73"></path></svg>