<svg id="visual" viewBox="0 0 1920 1080" width="1920" height="1080" xmlns="http://www.w3.org/2000/svg" xmlns:xlink="http://www.w3.org/1999/xlink" version="1.1"><path d="M0 293L160 262.3C320 231.7 640 170.3 960 209.8C1280 249.3 1600 389.7 1760 459.8L1920 530L1920 0L1760 0C1600 0 1280 0 960 0C640 0 320 0 160 0L0 0Z" fill="#7c4dff"></path><path d="M0 681L160 688.3C320 695.7 640 710.3 960 733.8C1280 757.3 1600 789.7 1760 805.8L1920 822L1920 528L1760 457.8C1600 387.7 1280 247.3 960 207.8C640 168.3 320 229.7 160 260.3L0 291Z" fill="#7c4dff"></path><path d="M0 897L160 915C320 933 640 969 960 970.8C1280 972.7 1600 940.3 1760 924.2L1920 908L1920 820L1760 803.8C1600 787.7 1280 755.3 960 731.8C640 708.3 320 693.7 160 686.3L0 679Z" fill="#1E293B"></path><path d="M0 1081L160 1081C320 1081 640 1081 960 1081C1280 1081 1600 1081 1760 1081L1920 1081L1920 906L1760 922.2C1600 938.3 1280 970.7 960 968.8C640 967 320 931 160 913L0 895Z" fill="#1E293B"></path></svg>