<svg id="visual" viewBox="0 0 1920 1080" width="1920" height="1080" xmlns="http://www.w3.org/2000/svg" xmlns:xlink="http://www.w3.org/1999/xlink" version="1.1"><rect x="0" y="0" width="1920" height="1080" fill="#6200ea"></rect><path d="M0 180L64 189.3C128 198.7 256 217.3 384 229.7C512 242 640 248 768 263.3C896 278.7 1024 303.3 1152 297.8C1280 292.3 1408 256.7 1536 240C1664 223.3 1792 225.7 1856 226.8L1920 228L1920 1081L1856 1081C1792 1081 1664 1081 1536 1081C1408 1081 1280 1081 1152 1081C1024 1081 896 1081 768 1081C640 1081 512 1081 384 1081C256 1081 128 1081 64 1081L0 1081Z" fill="#64b5f6"></path><path d="M0 418L64 423C128 428 256 438 384 422.8C512 407.7 640 367.3 768 356.2C896 345 1024 363 1152 357.5C1280 352 1408 323 1536 328.2C1664 333.3 1792 372.7 1856 392.3L1920 412L1920 1081L1856 1081C1792 1081 1664 1081 1536 1081C1408 1081 1280 1081 1152 1081C1024 1081 896 1081 768 1081C640 1081 512 1081 384 1081C256 1081 128 1081 64 1081L0 1081Z" fill="#90caf9"></path><path d="M0 491L64 497C128 503 256 515 384 530.5C512 546 640 565 768 561.2C896 557.3 1024 530.7 1152 500.8C1280 471 1408 438 1536 450.2C1664 462.3 1792 519.7 1856 548.3L1920 577L1920 1081L1856 1081C1792 1081 1664 1081 1536 1081C1408 1081 1280 1081 1152 1081C1024 1081 896 1081 768 1081C640 1081 512 1081 384 1081C256 1081 128 1081 64 1081L0 1081Z" fill="#e53935"></path><path d="M0 661L64 669.7C128 678.3 256 695.7 384 673.5C512 651.3 640 589.7 768 574.7C896 559.7 1024 591.3 1152 610.5C1280 629.7 1408 636.3 1536 649C1664 661.7 1792 680.3 1856 689.7L1920 699L1920 1081L1856 1081C1792 1081 1664 1081 1536 1081C1408 1081 1280 1081 1152 1081C1024 1081 896 1081 768 1081C640 1081 512 1081 384 1081C256 1081 128 1081 64 1081L0 1081Z" fill="#e53935"></path><path d="M0 585L64 588.7C128 592.3 256 599.7 384 612.7C512 625.7 640 644.3 768 662.2C896 680 1024 697 1152 698.3C1280 699.7 1408 685.3 1536 674.3C1664 663.3 1792 655.7 1856 651.8L1920 648L1920 1081L1856 1081C1792 1081 1664 1081 1536 1081C1408 1081 1280 1081 1152 1081C1024 1081 896 1081 768 1081C640 1081 512 1081 384 1081C256 1081 128 1081 64 1081L0 1081Z" fill="#e53935"></path><path d="M0 804L64 799.2C128 794.3 256 784.7 384 771.3C512 758 640 741 768 727C896 713 1024 702 1152 720.5C1280 739 1408 787 1536 788.7C1664 790.3 1792 745.7 1856 723.3L1920 701L1920 1081L1856 1081C1792 1081 1664 1081 1536 1081C1408 1081 1280 1081 1152 1081C1024 1081 896 1081 768 1081C640 1081 512 1081 384 1081C256 1081 128 1081 64 1081L0 1081Z" fill="#ad1457"></path><path d="M0 890L64 894.3C128 898.7 256 907.3 384 906.5C512 905.7 640 895.3 768 883.3C896 871.3 1024 857.7 1152 851C1280 844.3 1408 844.7 1536 855.2C1664 865.7 1792 886.3 1856 896.7L1920 907L1920 1081L1856 1081C1792 1081 1664 1081 1536 1081C1408 1081 1280 1081 1152 1081C1024 1081 896 1081 768 1081C640 1081 512 1081 384 1081C256 1081 128 1081 64 1081L0 1081Z" fill="#6200ea"></path><path d="M0 991L64 988C128 985 256 979 384 978.5C512 978 640 983 768 982.2C896 981.3 1024 974.7 1152 965.5C1280 956.3 1408 944.7 1536 950.2C1664 955.7 1792 978.3 1856 989.7L1920 1001L1920 1081L1856 1081C1792 1081 1664 1081 1536 1081C1408 1081 1280 1081 1152 1081C1024 1081 896 1081 768 1081C640 1081 512 1081 384 1081C256 1081 128 1081 64 1081L0 1081Z" fill="#6200ea"></path></svg>