<svg id="visual" viewBox="0 0 1920 250" width="1920" height="250" xmlns="http://www.w3.org/2000/svg" xmlns:xlink="http://www.w3.org/1999/xlink" version="1.1"><rect x="0" y="0" width="1920" height="250" fill="#0F172A"></rect><path d="M0 100L29.2 111C58.3 122 116.7 144 174.8 141.2C233 138.3 291 110.7 349.2 102.7C407.3 94.7 465.7 106.3 523.8 117.7C582 129 640 140 698.2 131.7C756.3 123.3 814.7 95.7 872.8 82.2C931 68.7 989 69.3 1047.2 86.3C1105.3 103.3 1163.7 136.7 1221.8 149.5C1280 162.3 1338 154.7 1396.2 138.5C1454.3 122.3 1512.7 97.7 1570.8 95.3C1629 93 1687 113 1745.2 127.5C1803.3 142 1861.7 151 1890.8 155.5L1920 160L1920 0L1890.8 0C1861.7 0 1803.3 0 1745.2 0C1687 0 1629 0 1570.8 0C1512.7 0 1454.3 0 1396.2 0C1338 0 1280 0 1221.8 0C1163.7 0 1105.3 0 1047.2 0C989 0 931 0 872.8 0C814.7 0 756.3 0 698.2 0C640 0 582 0 523.8 0C465.7 0 407.3 0 349.2 0C291 0 233 0 174.8 0C116.7 0 58.3 0 29.2 0L0 0Z" fill="#6200ea" stroke-linecap="round" stroke-linejoin="miter"></path></svg>