<svg id="visual" viewBox="0 0 1920 400" width="1920" height="400" xmlns="http://www.w3.org/2000/svg" xmlns:xlink="http://www.w3.org/1999/xlink" version="1.1"><path d="M0 263L32 268.5C64 274 128 285 192 282.7C256 280.3 320 264.7 384 247.5C448 230.3 512 211.7 576 213.5C640 215.3 704 237.7 768 245C832 252.3 896 244.7 960 232.7C1024 220.7 1088 204.3 1152 205.5C1216 206.7 1280 225.3 1344 241.2C1408 257 1472 270 1536 263.3C1600 256.7 1664 230.3 1728 224.5C1792 218.7 1856 233.3 1888 240.7L1920 248L1920 0L1888 0C1856 0 1792 0 1728 0C1664 0 1600 0 1536 0C1472 0 1408 0 1344 0C1280 0 1216 0 1152 0C1088 0 1024 0 960 0C896 0 832 0 768 0C704 0 640 0 576 0C512 0 448 0 384 0C320 0 256 0 192 0C128 0 64 0 32 0L0 0Z" fill="#6200ea"></path><path d="M0 200L32 199.2C64 198.3 128 196.7 192 189.8C256 183 320 171 384 173C448 175 512 191 576 199.7C640 208.3 704 209.7 768 210.2C832 210.7 896 210.3 960 214.3C1024 218.3 1088 226.7 1152 217.7C1216 208.7 1280 182.3 1344 184C1408 185.7 1472 215.3 1536 222C1600 228.7 1664 212.3 1728 199.2C1792 186 1856 176 1888 171L1920 166L1920 0L1888 0C1856 0 1792 0 1728 0C1664 0 1600 0 1536 0C1472 0 1408 0 1344 0C1280 0 1216 0 1152 0C1088 0 1024 0 960 0C896 0 832 0 768 0C704 0 640 0 576 0C512 0 448 0 384 0C320 0 256 0 192 0C128 0 64 0 32 0L0 0Z" fill="#6200ea"></path><path d="M0 162L32 154.8C64 147.7 128 133.3 192 134.3C256 135.3 320 151.7 384 158.8C448 166 512 164 576 162C640 160 704 158 768 162C832 166 896 176 960 169.3C1024 162.7 1088 139.3 1152 136.2C1216 133 1280 150 1344 162.5C1408 175 1472 183 1536 177.2C1600 171.3 1664 151.7 1728 147C1792 142.3 1856 152.7 1888 157.8L1920 163L1920 0L1888 0C1856 0 1792 0 1728 0C1664 0 1600 0 1536 0C1472 0 1408 0 1344 0C1280 0 1216 0 1152 0C1088 0 1024 0 960 0C896 0 832 0 768 0C704 0 640 0 576 0C512 0 448 0 384 0C320 0 256 0 192 0C128 0 64 0 32 0L0 0Z" fill="#6200ea"></path><path d="M0 108L32 105.2C64 102.3 128 96.7 192 92.8C256 89 320 87 384 94.2C448 101.3 512 117.7 576 116C640 114.3 704 94.7 768 95.2C832 95.7 896 116.3 960 125.8C1024 135.3 1088 133.7 1152 127.2C1216 120.7 1280 109.3 1344 99.2C1408 89 1472 80 1536 84.8C1600 89.7 1664 108.3 1728 111.7C1792 115 1856 103 1888 97L1920 91L1920 0L1888 0C1856 0 1792 0 1728 0C1664 0 1600 0 1536 0C1472 0 1408 0 1344 0C1280 0 1216 0 1152 0C1088 0 1024 0 960 0C896 0 832 0 768 0C704 0 640 0 576 0C512 0 448 0 384 0C320 0 256 0 192 0C128 0 64 0 32 0L0 0Z" fill="#1E293B"></path><path d="M0 31L32 34.7C64 38.3 128 45.7 192 48.5C256 51.3 320 49.7 384 46.3C448 43 512 38 576 37.5C640 37 704 41 768 47.7C832 54.3 896 63.7 960 70.7C1024 77.7 1088 82.3 1152 77.7C1216 73 1280 59 1344 49.7C1408 40.3 1472 35.7 1536 34.5C1600 33.3 1664 35.7 1728 35.8C1792 36 1856 34 1888 33L1920 32L1920 0L1888 0C1856 0 1792 0 1728 0C1664 0 1600 0 1536 0C1472 0 1408 0 1344 0C1280 0 1216 0 1152 0C1088 0 1024 0 960 0C896 0 832 0 768 0C704 0 640 0 576 0C512 0 448 0 384 0C320 0 256 0 192 0C128 0 64 0 32 0L0 0Z" fill="#1E293B"></path></svg>